<svg xmlns="http://www.w3.org/2000/svg" viewBox="0 0 256 256" width="32" height="32">
  <defs>
    <style>.a{fill:#25d366;}.b{fill:#fff;}</style>
  </defs>
  <circle class="a" cx="128" cy="128" r="128"/>
  <path class="b" d="M176.32,45.47A69.74,69.74,0,0,0,128.08,29C84.05,29,47.67,65.37,47.67,109.4a69.25,69.25,0,0,0,9.73,35.24L45.55,227l50.87-26.62a72.35,72.35,0,0,0,31.66,8.05h.1c44,0,80.4-36.37,80.4-80.4,0-21.5-8.33-41.72-23.46-56.89ZM128.08,211.72a60.26,60.26,0,0,1-27.69-6.67l-1.79-.93-18.73,9.8,10-35.71-1-1.77a60.29,60.29,0,1,1,39.23,34.28Z" transform="translate(0 0)"/>
  <path class="b" d="M196.69,154.83c-2.41-1.21-14.32-7.07-16.54-7.87-2.21-.81-3.84-1.21-5.47,1.21s-6.27,7.87-7.68,9.5-2.84,1.81-5.24.6a54.16,54.16,0,0,1-16.05-9.9,60.82,60.82,0,0,1-11.08-13.85c-1.22-2,-.13-3.09,1.08-4.09s2.41-2.81,3.61-4.22,1.6-2.41.81-4.03-.41-2.41-2-4.62a12.75,12.75,0,0,0-9.61-5.67c-2.41,0-5.24,1.21-8.08,1.21-2.41,0-6.27-1.21-10-6.27-2.41-3.61-2.41-8.48-2.41-9.9,0-2.41.81-7.27,5.47-11.33,5.07-4.62,11.84-5.24,16.49-5.24,5.24,0,9.9.6,13.51,1.81,5.07,1.81,9.9,5.24,12.7,9.9,4,6.27,5.64,13.1,6.27,19.77.6,6.87-.6,14.93-5.24,21.2-3.61,5-8,8.48-12.34,10.49Z" transform="translate(0 0)"/>
</svg>